<?xml version="1.0" standalone="no"?>
<!DOCTYPE svg PUBLIC "-//W3C//DTD SVG 20010904//EN"
 "http://www.w3.org/TR/2001/REC-SVG-20010904/DTD/svg10.dtd">
<svg version="1.0" xmlns="http://www.w3.org/2000/svg"
 width="1024.000000pt" height="1024.000000pt" viewBox="0 0 1024.000000 1024.000000"
 preserveAspectRatio="xMidYMid meet">

<g transform="translate(0.000000,1024.000000) scale(0.100000,-0.100000)"
fill="#000000" stroke="none">
<path d="M2240 7788 c37 -90 105 -253 150 -363 45 -110 101 -244 123 -297 l41
-98 306 0 c315 -1 447 -8 585 -36 104 -20 240 -65 338 -112 l78 -37 40 -90
c75 -168 276 -630 329 -755 29 -69 72 -172 96 -229 25 -57 43 -106 40 -108 -2
-2 -38 79 -81 179 -115 271 -187 416 -239 482 -144 185 -393 313 -691 356 -38
5 -203 10 -366 10 l-296 0 74 -182 c41 -101 101 -247 135 -325 l60 -143 41
-10 c129 -32 353 -134 512 -233 237 -148 446 -366 589 -615 61 -107 48 -78
326 -772 131 -327 275 -685 320 -795 45 -110 133 -326 195 -480 168 -415 177
-437 185 -428 9 10 83 180 288 668 313 745 367 875 529 1270 217 527 268 628
418 820 133 171 337 332 561 444 112 56 264 116 319 127 25 4 40 15 49 33 8
14 67 154 131 311 64 157 119 291 122 298 9 22 -627 11 -727 -12 -107 -25
-254 -81 -335 -129 -84 -48 -230 -191 -269 -262 -30 -55 -94 -196 -231 -515
-51 -118 -164 -377 -250 -575 -160 -367 -431 -999 -545 -1270 -34 -82 -66
-157 -71 -165 -4 -8 -6 59 -3 149 5 155 7 167 33 220 16 31 101 225 191 431
632 1460 877 2017 968 2200 l37 75 85 42 c96 48 258 104 370 127 130 27 286
36 595 36 l301 0 96 233 c54 127 125 300 159 382 33 83 76 185 94 228 l33 77
-832 0 -833 0 -12 -27 c-7 -16 -86 -199 -176 -408 -89 -209 -231 -535 -315
-725 -84 -190 -165 -374 -180 -410 -15 -36 -55 -127 -88 -202 -34 -75 -156
-359 -272 -630 -116 -271 -222 -518 -235 -548 l-24 -54 -19 44 c-91 209 -174
403 -322 750 -95 223 -201 470 -235 550 -35 80 -127 294 -205 475 -360 834
-485 1128 -497 1168 -5 16 -53 17 -833 17 l-828 0 68 -162z m2159 -2193 c0 -5
-6 1 -14 15 -8 14 -14 30 -14 35 0 6 6 -1 14 -15 8 -14 14 -29 14 -35z"/>
<path d="M3140 5608 c71 -166 378 -891 470 -1113 147 -356 329 -789 395 -945
77 -178 218 -518 357 -855 65 -159 136 -330 156 -380 l38 -90 199 -5 c110 -3
202 -4 204 -3 4 3 -162 422 -327 828 -246 602 -527 1302 -698 1735 -154 391
-379 649 -718 824 -49 25 -91 46 -92 46 -2 0 5 -19 16 -42z"/>
<path d="M7050 5613 c-284 -153 -470 -345 -609 -628 -27 -55 -128 -293 -224
-530 -96 -236 -195 -477 -220 -535 -24 -58 -91 -215 -147 -350 -56 -135 -171
-407 -255 -605 -185 -435 -292 -696 -300 -727 l-6 -23 198 3 c109 2 201 6 204
10 4 4 66 151 139 327 73 176 280 673 462 1105 181 432 350 835 375 895 25 61
97 232 160 380 63 149 129 306 148 350 18 44 53 127 77 185 64 151 71 170 67
174 -2 2 -33 -12 -69 -31z"/>
</g>
</svg>
